<?xml version="1.0" encoding="utf-8"?>
<svg version="1.1" xmlns="http://www.w3.org/2000/svg" xmlns:xlink="http://www.w3.org/1999/xlink" x="0px" y="0px" viewBox="0 0 185.97 25.42" id="twg-logo-color" width="100%" height="100%">
	<g>
		<path fill-opacity="0.54" d="M2.07 15.75V9.57H0v-2h2.07V3.94h2.21v3.61h2.89v2H4.28v6c0 1.32.55 1.92 1.59 1.92a2.23 2.23 0 0 0 1-.19l.77 1.9a4.29 4.29 0 0 1-1.78.31c-2.48 0-3.8-1.37-3.8-3.78"></path>
		<path fill-opacity="0.54" d="M11.25 7.55l-.1 1.64h.1a4.47 4.47 0 0 1 3.73-2c3 0 4.5 2 4.5 5v7.21h-2.21v-6.94c0-2.45-1.23-3.27-2.91-3.27-1.92 0-3.1 1.83-3.1 3.63v6.52H9V2.12h2.21v5.43z"></path>
		<path fill-opacity="0.54" d="M21.57 3.49a1.56 1.56 0 1 1 1.56 1.56 1.56 1.56 0 0 1-1.56-1.56"></path>
		<path fill-opacity="0.54" d="M22.03 19.34h2.21V7.55h-2.21v11.79z"></path>
		<path fill-opacity="0.54" d="M29 9.19h.1a4.47 4.47 0 0 1 3.73-2c3 0 4.5 2 4.5 5v7.21h-2.22v-6.94c0-2.45-1.23-3.27-2.91-3.27-1.92 0-3.1 1.83-3.1 3.63v6.52h-2.22V7.55H29v1.64z"></path>
		<path fill-opacity="0.54" d="M41.89 12.65l5-5.1h2.94v.1l-4.6 4.59 4.81 7v.1h-2.67l-3.7-5.56-1.78 1.78v3.78h-2.21V2.12h2.21v10.53z"></path>
		<path fill-opacity="0.38" d="M67.69 19.34l-2.93-9.05-2.91 9.05h-2.24l-3.8-11.79h2.31l2.62 8.9h.03l2.9-8.9h2.29l2.91 8.9h.02l2.6-8.9h2.26l-3.8 11.79h-2.26z"></path>
		<path fill-opacity="0.38" d="M74.81 3.49a1.56 1.56 0 1 1 1.56 1.56 1.56 1.56 0 0 1-1.56-1.56"></path>
		<path fill-opacity="0.38" d="M75.27 19.34h2.21V7.55h-2.21v11.79z"></path>
		<path fill-opacity="0.38" d="M81.18 15.75V9.57h-2.07v-2h2.07V3.94h2.21v3.61h2.89v2h-2.89v6c0 1.32.55 1.92 1.59 1.92a2.23 2.23 0 0 0 1-.19l.77 1.9a4.29 4.29 0 0 1-1.78.31c-2.48 0-3.8-1.37-3.8-3.78"></path>
		<path fill-opacity="0.38" d="M90.37 7.55l-.1 1.64h.1a4.47 4.47 0 0 1 3.73-2c3 0 4.5 2 4.5 5v7.21h-2.22v-6.94c0-2.45-1.23-3.27-2.91-3.27-1.92 0-3.1 1.83-3.1 3.63v6.52h-2.22V2.12h2.21v5.43z"></path>
		<path fill-opacity="0.38" d="M183.39 8.44V7.21h-.46v-.28h1.2v.28h-.43v1.23h-.31z"></path>
		<path fill-opacity="0.38" d="M185.66 8.44v-.75l.02-.29h-.02l-.42 1.04h-.22l-.42-1.04h-.01l.01.29v.75h-.31V6.93h.43l.4 1.03h.02l.4-1.03h.43v1.51h-.31z"></path>
		<path fill="#4285f4" d="M104.76 9.86a10 10 0 0 1 10-9.86 9.4 9.4 0 0 1 6.76 2.72l-1.9 1.9a6.87 6.87 0 0 0-4.86-1.92 7.07 7.07 0 0 0-7.07 7.17 7.07 7.07 0 0 0 7.08 7.13 6.6 6.6 0 0 0 5-2 5.62 5.62 0 0 0 1.47-3.39h-6.44V9h9.07a8.79 8.79 0 0 1 .14 1.68 8.9 8.9 0 0 1-2.33 6.3 9 9 0 0 1-6.88 2.77 10 10 0 0 1-10-9.86"></path>
		<path fill="#eb4335" d="M131.31 17.22a3.67 3.67 0 0 1-3.58-3.85 3.59 3.59 0 1 1 7.17 0 3.67 3.67 0 0 1-3.58 3.85m0-10.2a6.26 6.26 0 0 0-6.37 6.35 6.375 6.375 0 0 0 12.75 0A6.26 6.26 0 0 0 131.31 7"></path>
		<path fill="#fbbc05" d="M145.21 17.22a3.67 3.67 0 0 1-3.58-3.85 3.59 3.59 0 1 1 7.17 0 3.67 3.67 0 0 1-3.58 3.85m0-10.2a6.26 6.26 0 0 0-6.37 6.35 6.375 6.375 0 0 0 12.75 0A6.26 6.26 0 0 0 145.21 7"></path>
		<path fill="#4285f4" d="M159.07 17.22a3.64 3.64 0 0 1-3.54-3.82 3.67 3.67 0 0 1 3.54-3.87 3.58 3.58 0 0 1 3.39 3.87 3.55 3.55 0 0 1-3.39 3.82zm3.2-9.81v1h-.1A4.4 4.4 0 0 0 158.83 7a6.35 6.35 0 0 0 0 12.7 4.33 4.33 0 0 0 3.34-1.44h.1v.91c0 2.43-1.3 3.73-3.39 3.73a3.51 3.51 0 0 1-3.2-2.26l-2.43 1a6.05 6.05 0 0 0 5.63 3.75c3.27 0 6-1.92 6-6.61V7.41h-2.65z"></path>
		<path fill="#34a853" d="M166.84 19.34h2.79V.67h-2.79v18.67z"></path>
		<path fill="#eb4335" d="M177.06 9.48a2.46 2.46 0 0 1 2.36 1.35l-5.68 2.36a3.48 3.48 0 0 1 3.32-3.7m.22 7.74a3.23 3.23 0 0 1-3.08-1.92l8.49-3.51-.29-.72A5.9 5.9 0 0 0 177 7a6 6 0 0 0-6 6.35 6.21 6.21 0 0 0 6.3 6.35 6.31 6.31 0 0 0 5.29-2.81l-2.16-1.44a3.63 3.63 0 0 1-3.13 1.76"></path>
	</g>
</svg>
